<?xml version="1.0" standalone="no"?>
<!DOCTYPE svg PUBLIC "-//W3C//DTD SVG 20010904//EN"
 "http://www.w3.org/TR/2001/REC-SVG-20010904/DTD/svg10.dtd">
<svg version="1.0" xmlns="http://www.w3.org/2000/svg"
 width="300.000000pt" height="300.000000pt" viewBox="0 0 300.000000 300.000000"
 preserveAspectRatio="xMidYMid meet">
<metadata>
Created by potrace 1.10, written by Peter Selinger 2001-2011
</metadata>
<g transform="translate(0.000000,300.000000) scale(0.100000,-0.100000)"
fill="#000000" stroke="none">
<path d="M540 2690 c-11 -11 -20 -26 -20 -33 0 -16 29 -58 52 -75 30 -22 21
-48 -32 -87 -50 -37 -58 -49 -40 -60 6 -3 10 -24 10 -45 0 -43 -19 -63 -75
-76 -40 -9 -65 -32 -65 -60 0 -31 18 -34 65 -13 22 10 47 19 55 18 28 0 -20
-28 -77 -44 -111 -32 -169 -120 -138 -207 9 -24 25 -68 36 -98 11 -30 37 -125
59 -211 73 -291 175 -507 357 -752 195 -261 484 -446 799 -511 296 -62 733
-57 967 11 69 20 95 23 120 16 23 -7 38 -6 53 4 12 7 57 20 100 28 43 9 82 19
85 23 16 17 18 49 5 68 -12 16 -25 19 -90 16 -43 -2 -85 2 -97 9 -17 9 -28 7
-54 -7 -30 -16 -38 -16 -77 -4 -24 7 -71 12 -105 11 -55 -1 -63 1 -63 17 0 11
9 27 21 38 12 10 27 31 35 46 13 25 12 28 -6 38 -22 12 -69 -5 -107 -39 -23
-19 -32 -38 -13 -26 6 3 10 1 10 -5 0 -7 -6 -10 -12 -7 -7 2 -27 -8 -43 -24
l-30 -29 -96 25 c-276 70 -467 187 -631 389 -117 142 -160 209 -198 307 -54
141 -79 278 -100 558 -16 217 -14 248 15 267 23 15 30 14 109 -11 81 -26 126
-27 126 -3 0 28 -71 77 -165 112 -55 21 -130 53 -166 72 -37 19 -74 34 -83 34
-9 0 -16 8 -16 20 0 25 -40 45 -105 54 -64 10 -99 31 -92 58 11 40 -1 48 -72
48 -88 0 -95 6 -86 68 6 43 4 53 -14 71 -28 28 -84 28 -111 1z m85 -4 c31 -22
13 -46 -31 -39 -34 6 -37 4 -32 -15 4 -12 2 -20 -3 -16 -17 10 -9 53 13 68 27
19 29 19 53 2z m109 -162 c22 -9 10 -24 -20 -24 -25 0 -33 15 -11 23 6 3 13 6
14 6 1 1 8 -2 17 -5z m-61 -36 c16 -24 2 -45 -46 -66 -24 -11 -48 -25 -51 -31
-12 -18 -26 -2 -26 28 0 41 64 95 104 87 5 -1 14 -9 19 -18z m102 -50 c17 -6
37 -17 45 -24 12 -12 12 -14 -2 -14 -11 0 -15 -6 -11 -19 9 -35 -26 -34 -63 3
-37 37 -48 84 -16 71 9 -4 31 -12 47 -17z m-65 -48 c21 -13 12 -17 -64 -23
-72 -7 -80 3 -16 21 46 13 62 14 80 2z m284 -27 c24 -21 45 -41 45 -45 1 -5
-17 -8 -39 -8 -30 0 -42 5 -46 18 -3 9 -10 25 -15 34 -26 49 -4 49 55 1z m-88
-17 c-4 -15 0 -28 9 -36 8 -7 15 -17 15 -23 0 -6 -12 0 -27 14 -21 19 -25 20
-20 6 8 -23 -9 -57 -28 -57 -7 0 -23 14 -35 30 -24 33 -45 40 -38 12 5 -17 2
-18 -31 -6 -39 13 -82 10 -154 -13 -43 -13 -70 -12 -55 2 3 3 52 17 109 31 57
13 133 33 169 44 88 25 93 25 86 -4z m-326 -16 c0 -3 -11 -13 -24 -20 -32 -17
-41 -40 -22 -59 13 -12 25 -13 81 -2 42 7 72 8 82 2 14 -7 6 -12 -37 -24 -30
-9 -71 -19 -90 -22 -19 -4 -44 -15 -55 -25 -16 -15 -30 -17 -64 -13 l-44 6 44
21 c52 25 69 49 53 73 -15 25 42 99 63 82 7 -6 13 -15 13 -19z m650 -84 c0
-39 -41 -81 -88 -92 -15 -3 -51 -13 -80 -21 -28 -8 -103 -20 -165 -28 -96 -11
-124 -19 -196 -54 -92 -45 -124 -52 -114 -24 5 13 2 15 -18 10 -13 -4 -32 -7
-41 -7 -10 0 -18 -7 -18 -15 0 -37 -80 -23 -102 18 -9 17 -7 24 12 39 l22 18
-24 0 c-46 0 -63 -23 -62 -84 0 -62 -16 -62 -36 0 -20 61 8 95 102 119 47 13
48 13 48 -10 0 -30 35 -55 77 -55 36 0 44 15 13 25 -22 7 -27 25 -7 25 6 0 1
9 -12 19 -28 21 -22 26 39 36 25 4 90 21 145 37 189 56 294 77 403 77 l102 1
0 -34z m168 -52 c12 -8 22 -22 22 -30 0 -11 -7 -9 -30 8 -45 33 -38 54 8 22z
m-232 -111 c4 -14 4 -58 1 -98 -3 -44 -1 -77 5 -83 6 -6 9 -44 7 -91 -2 -45 0
-81 5 -81 5 0 6 -22 4 -50 -4 -38 -2 -50 8 -50 16 0 16 -2 8 -24 -3 -9 -12
-16 -19 -16 -14 0 -31 -57 -21 -67 3 -4 6 0 6 8 0 12 2 11 11 -1 8 -12 9 -11
4 6 -3 12 0 26 8 33 11 9 16 0 26 -47 18 -79 50 -193 62 -215 7 -13 4 -25 -12
-45 -20 -26 -20 -27 -2 -31 27 -5 53 -31 54 -55 1 -17 2 -18 6 -3 2 9 7 17 10
17 8 0 41 -41 88 -110 24 -36 61 -85 81 -109 21 -24 39 -52 39 -63 4 -45 122
-129 225 -159 25 -7 53 -23 63 -35 25 -32 84 -67 98 -58 8 4 9 3 5 -4 -5 -8 5
-12 32 -12 25 0 42 -5 45 -14 3 -7 37 -21 76 -31 71 -17 85 -27 55 -39 -38
-15 -125 3 -231 48 -93 39 -132 42 -184 16 -44 -23 -44 -23 -25 -1 27 30 14
36 -14 6 -30 -32 -41 -31 -73 4 -17 20 -32 28 -45 24 -11 -2 -30 0 -42 7 -17
9 -19 14 -9 26 9 11 9 14 -2 14 -10 0 -10 3 -1 12 20 20 14 28 -25 28 -59 1
-113 16 -139 41 -31 29 -30 39 4 38 33 -1 78 -17 50 -18 -29 -1 -21 -18 13
-30 38 -13 79 -14 79 -3 0 5 -27 34 -59 66 -58 55 -100 78 -313 174 -38 17
-68 36 -68 43 0 7 6 8 18 3 9 -4 27 -7 39 -7 13 1 21 -2 19 -6 -3 -4 4 -12 15
-19 12 -8 19 -9 19 -1 0 5 5 7 10 4 6 -4 8 -11 5 -16 -4 -5 5 -9 19 -9 21 0
26 5 26 24 0 29 -53 86 -80 86 -10 0 -31 11 -47 23 -15 13 -37 29 -48 35 -18
10 -16 11 16 12 68 0 72 36 12 104 -42 47 -48 46 -23 -4 23 -45 24 -50 9 -50
-5 0 -16 15 -24 34 -17 40 -58 74 -63 54 -11 -42 -13 -44 -26 -26 -6 9 -23 18
-36 20 -18 2 -26 10 -28 28 -5 46 -24 79 -58 105 -37 28 -47 53 -15 35 53 -28
78 0 42 46 -11 14 -17 33 -14 44 3 12 0 20 -7 20 -7 0 -10 -7 -6 -15 3 -8 0
-15 -6 -15 -7 0 -22 -9 -34 -21 -32 -30 -45 -17 -37 39 6 44 5 46 -11 32 -13
-10 -17 -23 -13 -47 5 -28 3 -33 -14 -33 -30 0 -23 -15 26 -58 49 -43 55 -53
26 -45 -10 3 -22 0 -25 -6 -14 -21 -27 -10 -50 43 -15 34 -32 57 -46 61 -18 6
-19 9 -8 22 10 13 7 20 -20 44 -32 29 -32 30 -15 54 26 34 44 39 67 16 19 -20
19 -21 3 -33 -15 -11 -16 -18 -6 -46 6 -17 17 -32 25 -32 12 0 14 12 12 57 -3
52 -6 59 -36 80 -18 12 -40 19 -49 16 -18 -7 -43 21 -43 49 0 10 6 18 14 18 7
0 16 9 19 20 3 14 17 21 46 26 49 8 63 39 37 79 -9 13 -16 33 -16 45 0 17 6
20 40 20 62 0 125 38 88 53 -7 3 6 6 29 6 28 1 45 6 51 18 9 15 15 15 50 5 54
-16 61 -15 33 7 l-25 19 40 11 c21 6 48 11 59 12 11 0 36 6 55 13 44 15 58 11
66 -21z m-591 -104 c10 -16 -26 -51 -48 -45 -10 2 -29 -6 -45 -19 l-26 -23 19
-35 c18 -34 18 -37 2 -55 -9 -10 -17 -25 -17 -32 0 -11 -3 -11 -12 -2 -7 7
-22 12 -35 12 -16 0 -23 6 -23 19 0 11 5 23 10 26 18 11 11 35 -14 44 -25 10
-38 41 -26 62 5 8 34 14 71 16 42 3 71 10 88 23 29 22 47 25 56 9z m48 -49
c12 0 28 -4 36 -9 22 -14 -5 -41 -40 -41 -34 0 -40 20 -6 21 17 1 15 3 -10 10
-18 5 -33 14 -33 20 0 6 7 8 16 5 9 -3 25 -6 37 -6z m-85 -42 c-3 -7 -13 -13
-23 -13 -10 0 -20 6 -22 13 -3 7 5 12 22 12 17 0 25 -5 23 -12z m42 -28 c0 -5
-7 -10 -15 -10 -8 0 -15 -4 -15 -10 0 -5 -7 -10 -15 -10 -8 0 -15 5 -15 10 0
6 7 10 15 10 8 0 15 5 15 10 0 6 7 10 15 10 8 0 15 -4 15 -10z m-49 -126 c11
-14 10 -15 -11 -12 -13 1 -25 9 -28 16 -5 17 23 15 39 -4z m31 -91 c-2 -23 1
-44 7 -47 5 -4 13 -31 17 -62 6 -51 9 -57 40 -70 39 -16 43 -22 50 -71 10 -76
12 -88 19 -106 4 -9 2 -24 -5 -32 -10 -12 -9 -20 5 -41 17 -26 15 -41 -4 -30
-5 3 -30 34 -55 67 -32 42 -46 71 -46 92 0 28 -17 92 -69 259 -18 57 -18 58 3
72 31 22 41 14 38 -31z m-73 -53 c11 -30 16 -56 11 -58 -8 -3 44 -137 62 -159
7 -9 7 -13 0 -13 -5 0 -17 12 -27 26 -31 48 -24 19 15 -60 21 -42 54 -96 73
-119 19 -23 40 -53 47 -67 7 -14 25 -37 39 -51 14 -14 34 -50 44 -78 14 -40
25 -55 47 -65 16 -6 40 -27 52 -46 13 -19 34 -36 46 -38 12 -2 20 -8 16 -13
-8 -14 34 -58 71 -74 33 -14 82 -62 72 -71 -13 -13 -81 21 -125 63 -126 119
-150 145 -182 198 -19 32 -68 106 -108 166 -82 123 -157 270 -142 279 9 6 -22
90 -69 185 -10 22 -17 42 -14 45 4 5 10 -2 40 -47 8 -11 7 -3 -2 21 -19 49
-19 64 0 45 8 -8 24 -39 34 -69z m355 -176 c3 -9 6 -26 6 -39 0 -13 16 -42 35
-65 19 -23 33 -46 30 -50 -3 -5 -46 10 -95 33 -68 32 -92 49 -101 70 -15 36
-6 44 34 28 74 -30 91 -25 67 20 -8 15 -7 19 4 19 7 0 17 -7 20 -16z m-46
-154 c37 -23 33 -45 -6 -35 -24 6 -51 31 -52 48 0 13 24 7 58 -13z m153 -47
c34 -6 38 -19 9 -28 -23 -7 -26 -21 -7 -28 7 -3 4 -6 -6 -6 -15 -1 -9 -11 27
-48 25 -25 45 -52 44 -59 -2 -7 6 -20 17 -28 11 -9 14 -16 7 -16 -18 0 -182
90 -182 101 0 6 8 6 19 -1 37 -19 36 -10 -2 17 -22 15 -34 29 -27 31 7 3 5 10
-6 23 -16 18 -16 19 0 19 9 0 14 5 11 10 -3 6 1 10 10 10 10 0 13 5 9 11 -5 9
1 10 21 5 15 -4 40 -10 56 -13z m98 -78 c29 -40 30 -46 15 -52 -21 -8 -64 41
-64 75 0 33 13 27 49 -23z m-306 3 c4 -10 8 -10 15 1 15 21 52 3 68 -34 7 -18
29 -45 49 -61 30 -24 36 -36 39 -74 4 -63 11 -75 67 -111 47 -30 53 -31 89
-20 31 9 44 9 60 -1 22 -14 25 -24 9 -33 -5 -4 -9 -17 -7 -30 1 -12 -3 -30
-11 -38 -7 -9 -11 -24 -7 -32 6 -16 -2 -45 -13 -45 -3 0 -12 4 -19 9 -11 7
-12 12 -1 29 16 25 -3 58 -58 99 -21 15 -72 62 -114 104 -41 42 -82 80 -91 85
-9 5 -29 38 -46 74 -17 36 -40 71 -51 78 -27 16 -29 37 -2 22 11 -5 22 -15 24
-22z m377 -163 l25 -14 -26 -1 c-14 0 -34 7 -45 15 -19 14 -19 14 1 14 11 0
31 -6 45 -14z m-37 -49 c42 -18 47 -31 15 -39 -54 -15 -184 41 -148 63 14 9
83 -4 133 -24z m96 -5 c20 -11 45 -23 56 -27 18 -7 17 -8 -8 -12 -19 -2 -42 5
-68 22 -60 40 -46 51 20 17z m94 2 c44 -15 48 -18 25 -21 -15 -2 -46 6 -70 17
-54 24 -24 27 45 4z m-34 -64 c29 -10 43 -29 21 -29 -16 0 -60 23 -60 32 0 10
1 10 39 -3z m6 -66 c30 -14 47 -33 30 -33 -14 0 -73 29 -79 39 -10 16 8 14 49
-6z m-31 -49 c9 -3 16 -12 16 -19 0 -17 29 -39 71 -53 44 -15 67 -8 75 25 4
16 11 22 21 19 8 -3 19 -6 25 -6 6 0 8 -11 6 -25 -5 -23 -2 -25 28 -25 19 0
34 -5 34 -11 0 -7 -13 -9 -37 -5 -36 6 -37 6 -18 -9 12 -9 29 -14 43 -10 23 6
106 -18 129 -37 7 -6 13 -17 13 -26 0 -12 -9 -14 -52 -8 -118 15 -159 23 -170
34 -7 7 -25 12 -41 12 -20 0 -38 10 -59 35 -22 24 -37 33 -52 30 -29 -7 -51
14 -59 53 -7 32 -2 37 27 26z m-27 -97 c-11 -30 314 -168 438 -185 44 -7 170
-15 280 -18 205 -6 261 -17 159 -30 -138 -17 -504 26 -659 77 -101 34 -268
110 -279 128 -5 7 4 13 23 17 17 4 31 10 31 15 0 5 3 9 6 9 3 0 4 -6 1 -13z
m663 -67 c0 -31 -30 -56 -38 -32 -3 9 -9 9 -23 2 -31 -17 -24 15 9 39 38 29
52 26 52 -9z m70 1 c0 -14 -48 -42 -55 -32 -3 5 5 17 17 25 25 18 38 20 38 7z
m523 -4 c9 -1 16 -6 14 -12 -6 -16 -237 -16 -237 0 0 22 21 25 115 19 50 -4
98 -7 108 -7z m367 -6 c0 -13 -105 -25 -122 -15 -9 6 0 11 27 15 64 10 95 10
95 0z m-1062 -36 c17 -14 37 -25 45 -25 9 0 19 -4 22 -10 4 -6 -20 -10 -64
-10 -38 0 -73 5 -76 10 -7 12 20 60 34 60 5 0 23 -11 39 -25z m462 0 c12 -11
49 -18 118 -22 85 -5 105 -3 127 11 14 9 34 14 45 11 10 -3 21 -1 25 5 9 15
132 10 145 -6 16 -19 -5 -27 -74 -29 -34 -1 -83 -10 -111 -19 -48 -17 -199
-39 -260 -38 -38 0 -117 16 -133 26 -17 10 3 36 27 36 9 0 27 9 41 20 30 24
29 24 50 5z m-663 -20 c84 -17 118 -35 66 -35 -40 0 -160 37 -169 52 -5 7 -2
9 9 5 9 -3 51 -13 94 -22z m483 15 c0 -5 -6 -11 -12 -12 -7 0 -17 -2 -23 -2
-5 -1 -15 -5 -22 -9 -6 -4 -14 -3 -17 2 -8 13 11 24 29 17 8 -3 17 -1 20 4 8
13 25 13 25 0z m23 -22 c-13 -12 -25 -19 -29 -15 -10 10 16 37 34 37 13 0 12
-4 -5 -22z"/>
<path d="M1011 2251 c-14 -26 -7 -41 19 -41 29 0 35 20 12 42 l-20 20 -11 -21z"/>
<path d="M1089 2239 c-11 -11 -18 -23 -15 -26 3 -3 12 2 21 11 9 9 21 16 26
16 5 0 9 5 9 10 0 16 -19 11 -41 -11z"/>
<path d="M784 2196 c-32 -14 -53 -36 -35 -36 5 0 11 5 13 11 3 9 52 17 121 19
9 0 17 5 17 10 0 15 -80 12 -116 -4z"/>
<path d="M680 2151 c0 -17 25 -30 40 -20 13 8 13 10 0 19 -19 12 -40 13 -40 1z"/>
<path d="M643 2123 c-24 -8 -13 -29 20 -41 45 -16 49 -15 37 8 -12 23 -40 39
-57 33z"/>
<path d="M1100 1969 c-14 -51 -10 -83 12 -87 17 -3 44 58 35 81 -3 6 -6 2 -6
-10 -1 -12 -6 -25 -12 -28 -7 -5 -8 7 -4 39 9 59 -10 63 -25 5z"/>
<path d="M795 1889 c4 -12 8 -29 10 -38 2 -18 65 -59 65 -42 0 6 -5 11 -10 11
-6 0 -10 6 -8 13 1 6 -12 27 -30 44 -27 27 -32 29 -27 12z"/>
<path d="M762 1802 c-14 -9 -7 -38 11 -45 7 -3 29 -12 50 -21 52 -22 46 -4
-10 33 -52 35 -34 42 27 11 22 -11 40 -16 40 -11 0 9 -72 41 -93 41 -6 0 -18
-4 -25 -8z"/>
<path d="M710 1762 c0 -10 56 -52 70 -52 19 0 10 15 -25 38 -38 24 -45 26 -45
14z"/>
<path d="M709 1722 c14 -26 5 -28 -21 -5 -33 30 -19 -2 16 -36 19 -18 39 -30
45 -27 21 13 11 45 -20 67 l-31 22 11 -21z"/>
<path d="M1138 1664 c-3 -11 1 -29 8 -39 12 -16 14 -16 20 -2 3 9 4 24 1 34
-4 13 -5 12 -7 -7 -2 -23 -3 -23 -9 5 -6 26 -8 27 -13 9z"/>
<path d="M1050 1624 c0 -54 36 -126 51 -102 12 18 -1 101 -17 111 -8 4 -14 15
-14 22 0 8 -4 15 -10 15 -5 0 -10 -21 -10 -46z"/>
<path d="M851 1641 c-1 -27 48 -141 60 -141 4 0 11 5 14 10 5 8 12 7 23 -2 13
-11 14 -11 8 0 -4 7 -3 19 4 27 9 11 3 23 -31 60 -46 50 -59 53 -35 6 9 -16
16 -33 16 -38 0 -16 -26 20 -42 60 -13 32 -17 37 -17 18z"/>
<path d="M1420 1000 c0 -8 11 -28 25 -45 18 -22 24 -26 25 -13 0 9 -11 30 -25
45 -16 19 -24 23 -25 13z"/>
<path d="M1140 625 c0 -6 129 -71 160 -80 14 -4 -15 14 -65 39 -96 49 -95 49
-95 41z"/>
</g>
</svg>
